<svg width="390" height="844" viewBox="0 0 390 844" fill="none" xmlns="http://www.w3.org/2000/svg">
<g clip-path="url(#clip0_603_1062)">
<path d="M260.554 507.536C260.85 505.906 259.768 504.344 258.138 504.048C256.508 503.752 254.946 504.834 254.65 506.464L260.554 507.536ZM265.602 558.386L267.553 556.108L267.553 556.108L265.602 558.386ZM397.602 622.619L394.952 624.026L394.952 624.026L397.602 622.619ZM394.663 784.398C394.33 786.021 395.377 787.606 397 787.939C398.623 788.271 400.208 787.225 400.541 785.602L394.663 784.398ZM134.553 506.464C134.257 504.834 132.695 503.752 131.065 504.048C129.435 504.344 128.354 505.906 128.65 507.536L134.553 506.464ZM123.601 558.386L121.65 556.108L121.65 556.108L123.601 558.386ZM-8.39869 622.619L-5.74878 624.026L-5.74878 624.026L-8.39869 622.619ZM-11.3377 785.602C-11.0052 787.225 -9.4198 788.271 -7.79665 787.939C-6.1735 787.606 -5.12722 786.021 -5.45972 784.398L-11.3377 785.602ZM254.65 506.464C253.448 513.084 252.42 523.626 253.236 533.894C254.037 543.96 256.675 554.691 263.65 560.665L267.553 556.108C262.528 551.804 260 543.266 259.217 533.419C258.451 523.775 259.423 513.763 260.554 507.536L254.65 506.464ZM263.65 560.665C265.957 562.641 269.485 564.291 273.557 565.794C277.707 567.327 282.766 568.826 288.382 570.375C299.696 573.497 313.33 576.845 327.331 581.226C341.305 585.598 355.408 590.932 367.458 597.908C379.519 604.892 389.313 613.401 394.952 624.026L400.252 621.213C393.891 609.228 383.06 600.009 370.464 592.716C357.858 585.417 343.274 579.927 329.123 575.5C314.999 571.08 301.07 567.652 289.978 564.591C284.391 563.05 279.536 561.606 275.635 560.166C271.656 558.696 268.996 557.344 267.553 556.108L263.65 560.665ZM394.952 624.026C399.494 632.583 402.337 644.379 403.845 658.089C405.347 671.753 405.501 687.095 404.805 702.596C403.413 733.601 398.638 764.994 394.663 784.398L400.541 785.602C404.566 765.952 409.39 734.243 410.799 702.865C411.503 687.175 411.356 671.504 409.809 657.433C408.266 643.407 405.31 630.743 400.252 621.213L394.952 624.026ZM128.65 507.536C129.781 513.763 130.753 523.775 129.986 533.419C129.203 543.266 126.675 551.804 121.65 556.108L125.553 560.665C132.528 554.691 135.167 543.96 135.967 533.894C136.783 523.626 135.755 513.084 134.553 506.464L128.65 507.536ZM121.65 556.108C120.207 557.344 117.547 558.696 113.568 560.166C109.668 561.606 104.812 563.05 99.2252 564.591C88.133 567.652 74.2046 571.08 60.0805 575.5C45.9292 579.927 31.345 585.417 18.7387 592.716C6.14347 600.009 -4.68762 609.228 -11.0486 621.213L-5.74878 624.026C-0.109758 613.401 9.68416 604.892 21.7451 597.908C33.7951 590.932 47.8985 585.598 61.8721 581.226C75.873 576.845 89.5071 573.497 100.821 570.375C106.437 568.826 111.496 567.327 115.646 565.794C119.718 564.291 123.246 562.641 125.553 560.665L121.65 556.108ZM-11.0486 621.213C-16.1069 630.743 -19.0633 643.407 -20.6057 657.433C-22.1531 671.504 -22.2999 687.175 -21.5957 702.865C-20.1873 734.243 -15.3628 765.952 -11.3377 785.602L-5.45972 784.398C-9.43455 764.994 -14.2101 733.601 -15.6017 702.596C-16.2975 687.095 -16.1443 671.753 -14.6417 658.089C-13.134 644.379 -10.2905 632.583 -5.74878 624.026L-11.0486 621.213Z" fill="#FFBB38"/>
<path d="M316 372.258C316 412.816 302.325 452.622 280.275 482.235C258.213 511.865 228.017 531 195 531C161.983 531 131.787 511.865 109.725 482.235C87.6746 452.622 74 412.816 74 372.258C74 291.031 128.623 228 195 228C261.377 228 316 291.031 316 372.258Z" fill="#FFBB38" fill-opacity="0.1" stroke="#FFBB38" stroke-width="6"/>
</g>
<defs>
<clipPath id="clip0_603_1062">
<rect width="390" height="844" fill="white"/>
</clipPath>
</defs>
</svg>
